<svg width="519.081421" height="538.505676" viewBox="0 0 519.081 538.506" fill="none" xmlns="http://www.w3.org/2000/svg" xmlns:xlink="http://www.w3.org/1999/xlink">
	<desc>
			Created with Pixso.
	</desc>
	<defs>
		<clipPath id="clip5_125">
			<rect id="Frame 2" rx="258.539673" width="536.503601" height="517.079346" transform="translate(1.001044 539.506714) rotate(-90.000000)" fill="white" fill-opacity="0"/>
		</clipPath>
	</defs>
	<g clip-path="url(#clip5_125)">
		<line id="Line 1" x1="518.542725" y1="518.484802" x2="-0.001831" y2="518.484802" stroke="#FFFFFF" stroke-opacity="0.220000" stroke-width="2.002088"/>
		<line id="Line 2" x1="518.542725" y1="498.463928" x2="-0.001831" y2="498.463928" stroke="#FFFFFF" stroke-opacity="0.220000" stroke-width="2.002088"/>
		<line id="Line 3" x1="518.542725" y1="478.443054" x2="-0.001831" y2="478.443054" stroke="#FFFFFF" stroke-opacity="0.220000" stroke-width="2.002088"/>
		<line id="Line 4" x1="518.542725" y1="458.422180" x2="-0.001831" y2="458.422180" stroke="#FFFFFF" stroke-opacity="0.220000" stroke-width="2.002088"/>
		<line id="Line 5" x1="518.542725" y1="438.401306" x2="-0.001831" y2="438.401306" stroke="#FFFFFF" stroke-opacity="0.220000" stroke-width="2.002088"/>
		<line id="Line 6" x1="518.542725" y1="418.380432" x2="-0.001831" y2="418.380432" stroke="#FFFFFF" stroke-opacity="0.220000" stroke-width="2.002088"/>
		<line id="Line 7" x1="518.542725" y1="398.359558" x2="-0.001831" y2="398.359558" stroke="#FFFFFF" stroke-opacity="0.220000" stroke-width="2.002088"/>
		<line id="Line 8" x1="518.542725" y1="378.338684" x2="-0.001831" y2="378.338684" stroke="#FFFFFF" stroke-opacity="0.220000" stroke-width="2.002088"/>
		<line id="Line 9" x1="518.542725" y1="358.317810" x2="-0.001831" y2="358.317810" stroke="#FFFFFF" stroke-opacity="0.220000" stroke-width="2.002088"/>
		<line id="Line 10" x1="518.542725" y1="338.296936" x2="-0.001831" y2="338.296936" stroke="#FFFFFF" stroke-opacity="0.220000" stroke-width="2.002088"/>
		<line id="Line 11" x1="518.542725" y1="318.276062" x2="-0.001831" y2="318.276062" stroke="#FFFFFF" stroke-opacity="0.220000" stroke-width="2.002088"/>
		<line id="Line 12" x1="518.542725" y1="298.255188" x2="-0.001831" y2="298.255188" stroke="#FFFFFF" stroke-opacity="0.220000" stroke-width="2.002088"/>
		<line id="Line 13" x1="518.542725" y1="278.234283" x2="-0.001831" y2="278.234283" stroke="#FFFFFF" stroke-opacity="0.220000" stroke-width="2.002088"/>
		<line id="Line 14" x1="518.542725" y1="258.213409" x2="-0.001831" y2="258.213409" stroke="#FFFFFF" stroke-opacity="0.220000" stroke-width="2.002088"/>
		<line id="Line 15" x1="518.542725" y1="238.192535" x2="-0.001831" y2="238.192535" stroke="#FFFFFF" stroke-opacity="0.220000" stroke-width="2.002088"/>
		<line id="Line 16" x1="518.542725" y1="218.171661" x2="-0.001831" y2="218.171661" stroke="#FFFFFF" stroke-opacity="0.220000" stroke-width="2.002088"/>
		<line id="Line 17" x1="518.542725" y1="198.150787" x2="-0.001831" y2="198.150787" stroke="#FFFFFF" stroke-opacity="0.220000" stroke-width="2.002088"/>
		<line id="Line 18" x1="518.542725" y1="178.129913" x2="-0.001831" y2="178.129913" stroke="#FFFFFF" stroke-opacity="0.220000" stroke-width="2.002088"/>
		<line id="Line 19" x1="518.542725" y1="158.109039" x2="-0.001831" y2="158.109039" stroke="#FFFFFF" stroke-opacity="0.220000" stroke-width="2.002088"/>
		<line id="Line 20" x1="518.542725" y1="138.088165" x2="-0.001831" y2="138.088165" stroke="#FFFFFF" stroke-opacity="0.220000" stroke-width="2.002088"/>
		<line id="Line 21" x1="518.542725" y1="118.067261" x2="-0.001831" y2="118.067261" stroke="#FFFFFF" stroke-opacity="0.220000" stroke-width="2.002088"/>
		<line id="Line 22" x1="518.542725" y1="98.046387" x2="-0.001831" y2="98.046387" stroke="#FFFFFF" stroke-opacity="0.220000" stroke-width="2.002088"/>
		<line id="Line 23" x1="518.542725" y1="78.025513" x2="-0.001831" y2="78.025513" stroke="#FFFFFF" stroke-opacity="0.220000" stroke-width="2.002088"/>
		<line id="Line 24" x1="518.542725" y1="58.004639" x2="-0.001831" y2="58.004639" stroke="#FFFFFF" stroke-opacity="0.220000" stroke-width="2.002088"/>
		<line id="Line 25" x1="518.542725" y1="37.983765" x2="-0.001831" y2="37.983765" stroke="#FFFFFF" stroke-opacity="0.220000" stroke-width="2.002088"/>
		<line id="Line 26" x1="518.542725" y1="17.962891" x2="-0.001831" y2="17.962891" stroke="#FFFFFF" stroke-opacity="0.220000" stroke-width="2.002088"/>
		<line id="Line 27" x1="18.018799" y1="538.522461" x2="18.018799" y2="-0.072632" stroke="#FFFFFF" stroke-opacity="0.220000" stroke-width="2.002088"/>
		<line id="Line 28" x1="38.039673" y1="538.522461" x2="38.039673" y2="-0.072632" stroke="#FFFFFF" stroke-opacity="0.220000" stroke-width="2.002088"/>
		<line id="Line 29" x1="58.060547" y1="538.522461" x2="58.060547" y2="-0.072632" stroke="#FFFFFF" stroke-opacity="0.220000" stroke-width="2.002088"/>
		<line id="Line 30" x1="78.081421" y1="538.522461" x2="78.081421" y2="-0.072632" stroke="#FFFFFF" stroke-opacity="0.220000" stroke-width="2.002088"/>
		<line id="Line 31" x1="98.102295" y1="538.522461" x2="98.102295" y2="-0.072632" stroke="#FFFFFF" stroke-opacity="0.220000" stroke-width="2.002088"/>
		<line id="Line 32" x1="118.123169" y1="538.522461" x2="118.123169" y2="-0.072632" stroke="#FFFFFF" stroke-opacity="0.220000" stroke-width="2.002088"/>
		<line id="Line 33" x1="138.144043" y1="538.522461" x2="138.144043" y2="-0.072632" stroke="#FFFFFF" stroke-opacity="0.220000" stroke-width="2.002088"/>
		<line id="Line 34" x1="158.164917" y1="538.522461" x2="158.164917" y2="-0.072632" stroke="#FFFFFF" stroke-opacity="0.220000" stroke-width="2.002088"/>
		<line id="Line 35" x1="178.185791" y1="538.522461" x2="178.185791" y2="-0.072632" stroke="#FFFFFF" stroke-opacity="0.220000" stroke-width="2.002088"/>
		<line id="Line 36" x1="198.206665" y1="538.522461" x2="198.206665" y2="-0.072632" stroke="#FFFFFF" stroke-opacity="0.220000" stroke-width="2.002088"/>
		<line id="Line 37" x1="218.227539" y1="538.522461" x2="218.227539" y2="-0.072632" stroke="#FFFFFF" stroke-opacity="0.220000" stroke-width="2.002088"/>
		<line id="Line 38" x1="238.248413" y1="538.522461" x2="238.248413" y2="-0.072632" stroke="#FFFFFF" stroke-opacity="0.220000" stroke-width="2.002088"/>
		<line id="Line 39" x1="258.269287" y1="538.522461" x2="258.269287" y2="-0.072632" stroke="#FFFFFF" stroke-opacity="0.220000" stroke-width="2.002088"/>
		<line id="Line 40" x1="278.290161" y1="538.522461" x2="278.290161" y2="-0.072632" stroke="#FFFFFF" stroke-opacity="0.220000" stroke-width="2.002088"/>
		<line id="Line 41" x1="298.311035" y1="538.522461" x2="298.311035" y2="-0.072632" stroke="#FFFFFF" stroke-opacity="0.220000" stroke-width="2.002088"/>
		<line id="Line 42" x1="318.331909" y1="538.522461" x2="318.331909" y2="-0.072632" stroke="#FFFFFF" stroke-opacity="0.220000" stroke-width="2.002088"/>
		<line id="Line 43" x1="338.352783" y1="538.522461" x2="338.352783" y2="-0.072632" stroke="#FFFFFF" stroke-opacity="0.220000" stroke-width="2.002088"/>
		<line id="Line 44" x1="358.373657" y1="538.522461" x2="358.373657" y2="-0.072632" stroke="#FFFFFF" stroke-opacity="0.220000" stroke-width="2.002088"/>
		<line id="Line 45" x1="378.394531" y1="538.522461" x2="378.394531" y2="-0.072632" stroke="#FFFFFF" stroke-opacity="0.220000" stroke-width="2.002088"/>
		<line id="Line 46" x1="398.415466" y1="538.522461" x2="398.415466" y2="-0.072632" stroke="#FFFFFF" stroke-opacity="0.220000" stroke-width="2.002088"/>
		<line id="Line 47" x1="418.436340" y1="538.522461" x2="418.436340" y2="-0.072632" stroke="#FFFFFF" stroke-opacity="0.220000" stroke-width="2.002088"/>
		<line id="Line 48" x1="438.457214" y1="538.522461" x2="438.457214" y2="-0.072632" stroke="#FFFFFF" stroke-opacity="0.220000" stroke-width="2.002088"/>
		<line id="Line 49" x1="458.478088" y1="538.522461" x2="458.478088" y2="-0.072632" stroke="#FFFFFF" stroke-opacity="0.220000" stroke-width="2.002088"/>
		<line id="Line 50" x1="478.498962" y1="538.522461" x2="478.498962" y2="-0.072632" stroke="#FFFFFF" stroke-opacity="0.220000" stroke-width="2.002088"/>
		<line id="Line 51" x1="498.519836" y1="538.522461" x2="498.519836" y2="-0.072632" stroke="#FFFFFF" stroke-opacity="0.220000" stroke-width="2.002088"/>
	</g>
</svg>
