<svg width="507.428528" height="180.055420" viewBox="0 0 507.429 180.055" fill="none" xmlns="http://www.w3.org/2000/svg" xmlns:xlink="http://www.w3.org/1999/xlink">
	<desc>
			Created with Pixso.
	</desc>
	<defs/>
	<path id="Vector" d="M507.42 0L136.19 160.23C105.41 173.43 79.55 180.05 58.64 180.05C34.96 180.05 17.77 171.65 7.12 154.82C0.41 144.02 -1.55 130.33 1.2 113.72C3.94 97.11 11.26 79.42 23.1 60.61C32.97 45.39 49.15 25.39 71.67 0.6C64.03 12.78 58.43 26.17 55.09 40.2C49.17 65.81 54.5 84.61 71.07 96.61C78.96 102.21 89.81 105.02 103.63 105.02C114.67 105.02 127.1 103.21 140.93 99.61L507.42 0Z" fill="#FFFFFF" fill-opacity="1.000000" fill-rule="nonzero"/>
</svg>
